<svg id="Calque_1" data-name="Calque 1" xmlns="http://www.w3.org/2000/svg" viewBox="0 0 95.98 95.98"><title>Plan de travail 2 copie 11</title><g id="logo"><path id="Union_3-2" data-name="Union 3-2" d="M45.66,69.88l4.06-23.39-4.83.44.14-.81a22,22,0,0,0,8.35-6.06,50.33,50.33,0,0,0,7.39-10.34l.92-.09L59.21,44.2l7-.62L65.94,45l-7,.63L55.1,67.88c-.63,3.43.59,5,2.87,4.83,1.92-.17,3.6-1.4,5.2-3.62l.76.51c-3.06,5.15-7.7,8.5-12,8.89C47.19,78.92,44.66,75.49,45.66,69.88ZM11.5,64.66a3.89,3.89,0,0,1,3.38-4.32l.25,0a3.88,3.88,0,0,1,4,2.63c.38.68,1,2.59,1.45,3.47a4.57,4.57,0,0,0,5,2.54c4.8-.43,8.66-4.39,8.26-8.88-.65-8.39-16.52-13.14-17.46-24.69C15.73,28,21.54,21.64,31.65,20.73c7.25-.65,11.7,1.94,12,5.61a4,4,0,0,1-3.55,4.44h-.06C38.33,31,36.91,30,35.91,28a30.26,30.26,0,0,0-1.32-3.17c-.63-1.29-2-2.4-4.93-2.13-4.6.41-7.62,3.46-7.21,8,.87,9.71,17.35,13.17,18.38,24.71a12.35,12.35,0,0,1-3.92,10.13c-2.93,3-6.89,4.64-12.1,5.11C17.14,71.26,11.87,68.75,11.5,64.66Zm61-5.55A3.85,3.85,0,0,1,76,55a3.54,3.54,0,0,1,3.79,3.22,3.76,3.76,0,0,1-3.42,4h0a3.5,3.5,0,0,1-3.84-3.12ZM76.57,50c.43-6.85.57-15.45.43-25.87-.07-4.22,1.32-6.44,4.18-6.69a3,3,0,0,1,3.31,2.66,1,1,0,0,1,0,.17A24.57,24.57,0,0,1,83.14,27,236.44,236.44,0,0,0,77.3,50Z"/></g></svg>