<?xml version="1.0" encoding="utf-8"?>
<!-- Generator: Adobe Illustrator 24.0.2, SVG Export Plug-In . SVG Version: 6.00 Build 0)  -->
<svg version="1.1" id="Capa_1" xmlns="http://www.w3.org/2000/svg" xmlns:xlink="http://www.w3.org/1999/xlink" x="0px" y="0px"
	 viewBox="0 0 512 512" style="enable-background:new 0 0 512 512;" xml:space="preserve">
<style type="text/css">
	.st0{fill:#FFFFFF;}
</style>
<circle class="st0" cx="256" cy="256" r="256"/>
<path d="M388.4,133.7H123.6c-16.9,0-30.6,13.7-30.6,30.6v183.4c0,16.9,13.7,30.6,30.6,30.6h264.9c16.9,0,30.6-13.7,30.6-30.6V164.3
	C419,147.5,405.3,133.7,388.4,133.7z M388.4,154.1c1.4,0,2.7,0.3,3.9,0.8L256,273.1L119.7,154.9c1.2-0.5,2.5-0.8,3.9-0.8H388.4z
	 M388.4,357.9H123.6c-5.6,0-10.2-4.6-10.2-10.2V176.4l135.9,117.8c1.9,1.7,4.3,2.5,6.7,2.5c2.4,0,4.8-0.8,6.7-2.5l135.9-117.8v171.2
	C398.6,353.3,394.1,357.9,388.4,357.9z"/>
</svg>
