<?xml version="1.0" encoding="utf-8"?>
<!-- Generator: Adobe Illustrator 24.0.2, SVG Export Plug-In . SVG Version: 6.00 Build 0)  -->
<svg version="1.1" id="Capa_1" xmlns="http://www.w3.org/2000/svg" xmlns:xlink="http://www.w3.org/1999/xlink" x="0px" y="0px"
	 viewBox="0 0 512 512" style="enable-background:new 0 0 512 512;" xml:space="preserve">
<style type="text/css">
	.st0{fill:#FFFFFF;}
</style>
<circle class="st0" cx="256" cy="256" r="256"/>
<g>
	<path d="M226.9,258.6c5.2-18.5-2.8-25.9-16.8-24.8l0.7-3.5l81.8-16.4l2.4,1.1L282.5,259l-22.7,79.4c-4.5,15.4-3.1,23.1,4.2,23.1
		s15-5.2,23.1-15.4l3.8,3.5c-18.9,22.7-38.8,33.9-59.8,33.9c-25.9,0-34.3-16.1-25.5-47.9L226.9,258.6z M277.3,128.5
		c18.5,0,32.5,14,32.5,32.2c0,18.5-15,33.9-34.3,33.9c-18.2,0-32.2-14-32.2-32.2C243.3,143.2,258.7,128.5,277.3,128.5z"/>
</g>
</svg>
