<?xml version="1.0" encoding="utf-8"?>
<!-- Generator: Adobe Illustrator 24.0.2, SVG Export Plug-In . SVG Version: 6.00 Build 0)  -->
<svg version="1.1" id="Calque_1" xmlns="http://www.w3.org/2000/svg" xmlns:xlink="http://www.w3.org/1999/xlink" x="0px" y="0px"
	 viewBox="0 0 511 511" style="enable-background:new 0 0 511 511;" xml:space="preserve">
<style type="text/css">
	.st0{fill:#FFFFFF;}
</style>
<circle class="st0" cx="256" cy="256" r="256"/>
<path d="M401.3,195.5c-0.7-15.5-3.2-26.1-6.8-35.3c-3.7-9.8-9.4-18.6-16.8-25.8c-7.3-7.4-16.1-13.1-25.8-16.8
	c-9.3-3.6-19.9-6.1-35.3-6.8c-15.6-0.7-20.5-0.9-60.1-0.9s-44.5,0.2-60,0.9c-15.5,0.7-26.1,3.2-35.3,6.8
	c-9.8,3.7-18.6,9.4-25.8,16.8c-7.4,7.3-13.1,16.1-16.8,25.8c-3.6,9.3-6.1,19.9-6.8,35.3c-0.7,15.6-0.9,20.5-0.9,60.1
	s0.2,44.5,0.9,60c0.7,15.5,3.2,26.1,6.8,35.3c3.7,9.8,9.4,18.6,16.8,25.8c7.3,7.4,16.1,13.1,25.8,16.8c9.3,3.6,19.9,6.1,35.3,6.8
	c15.5,0.7,20.5,0.9,60,0.9s44.5-0.2,60-0.9c15.5-0.7,26.1-3.2,35.3-6.8c19.6-7.6,35.1-23.1,42.6-42.6c3.6-9.3,6.1-19.9,6.8-35.3
	c0.7-15.5,0.9-20.5,0.9-60S401.9,211,401.3,195.5z M375,314.4c-0.6,14.2-3,21.9-5,27c-4.9,12.7-15,22.8-27.7,27.7
	c-5.1,2-12.9,4.4-27,5c-15.4,0.7-20,0.9-58.9,0.9s-43.5-0.2-58.9-0.9c-14.2-0.6-21.9-3-27-5c-6.3-2.3-12.1-6-16.7-10.9
	c-4.8-4.7-8.5-10.4-10.9-16.7c-2-5.1-4.4-12.9-5-27c-0.7-15.4-0.9-20-0.9-58.9s0.2-43.5,0.9-58.9c0.6-14.2,3-21.9,5-27
	c2.3-6.3,6-12.1,10.9-16.7c4.7-4.8,10.4-8.5,16.7-10.9c5.1-2,12.9-4.4,27-5c15.4-0.7,20-0.9,58.9-0.9c38.9,0,43.5,0.2,58.9,0.9
	c14.2,0.6,21.9,3,27,5c6.3,2.3,12.1,6,16.7,10.9c4.8,4.7,8.5,10.4,10.9,16.7c2,5.1,4.4,12.9,5,27c0.7,15.4,0.9,20,0.9,58.9
	S375.7,299.1,375,314.4z"/>
<path d="M256.4,180.7c-41.3,0-74.8,33.5-74.8,74.8s33.5,74.8,74.8,74.8c41.3,0,74.8-33.5,74.8-74.8S297.7,180.7,256.4,180.7z
	 M256.4,304.1c-26.8,0-48.6-21.7-48.6-48.6c0-26.8,21.7-48.6,48.6-48.6c26.8,0,48.6,21.7,48.6,48.6
	C305,282.3,283.2,304.1,256.4,304.1z"/>
<path d="M351.7,177.7c0,9.6-7.8,17.5-17.5,17.5c-9.6,0-17.5-7.8-17.5-17.5c0-9.7,7.8-17.5,17.5-17.5
	C343.9,160.2,351.7,168.1,351.7,177.7z"/>
</svg>
