<?xml version="1.0" encoding="utf-8"?>
<!-- Generator: Adobe Illustrator 24.0.2, SVG Export Plug-In . SVG Version: 6.00 Build 0)  -->
<svg version="1.1" id="Capa_1" xmlns="http://www.w3.org/2000/svg" xmlns:xlink="http://www.w3.org/1999/xlink" x="0px" y="0px"
	 viewBox="0 0 512 512" style="enable-background:new 0 0 512 512;" xml:space="preserve">
<style type="text/css">
	.st0{fill:#FFFFFF;}
</style>
<circle class="st0" cx="256" cy="256" r="256"/>
<g>
	<g>
		<path d="M412,159.3c-11.6,5.1-24,8.5-36.9,10.1c13.3-7.9,23.4-20.4,28.1-35.4c-12.4,7.4-26,12.6-40.6,15.5
			C351,137,334.3,129.2,316,129.2c-35.4,0-63.9,28.7-63.9,64c0,5.1,0.4,9.9,1.5,14.6c-53.2-2.6-100.2-28.1-131.8-66.9
			c-5.5,9.6-8.8,20.5-8.8,32.3c0,22.2,11.4,41.8,28.4,53.2c-10.3-0.2-20.4-3.2-28.9-7.9c0,0.2,0,0.4,0,0.7
			c0,31.1,22.2,56.9,51.2,62.8c-5.2,1.4-10.9,2.1-16.8,2.1c-4.1,0-8.2-0.2-12.1-1.1c8.3,25.3,31.8,44,59.8,44.6
			c-21.8,17-49.4,27.3-79.3,27.3c-5.2,0-10.3-0.2-15.3-0.9c28.3,18.3,61.9,28.7,98.1,28.7c117.7,0,182.1-97.5,182.1-182
			c0-2.8-0.1-5.6-0.2-8.3C392.6,183.5,403.3,172.2,412,159.3z"/>
	</g>
</g>
</svg>
